REM DIRINDEX 1\2\5,1\2\6,1\2\7,1\2\8,1\3\9,1\3\10,1\3\11,1\4\12,1\4\13,1\4\14,1\4\15,1\4\16
REM DIRNAME folder01,folder02,folder03,folder04,folder05,folder06,folder07,folder08,folder09,folder10,folder11,folder12,folder13,folder14,folder15,folder16
TITLE ""
FILE "1200_2_sec05_1661_1681.mp3" MP3
  TRACK 01 AUDIO
    TITLE "0:"
    INDEX 01 00:00:00
  TRACK 02 AUDIO
    TITLE "10:cjc034_03445"
    INDEX 01 00:00:13
  TRACK 03 AUDIO
    TITLE "0:"
    INDEX 01 00:01:52
  TRACK 04 AUDIO
    TITLE "9:cjc034_03446"
    INDEX 01 00:01:56
  TRACK 05 AUDIO
    TITLE "0:"
    INDEX 01 00:02:67
  TRACK 06 AUDIO
    TITLE "10:cjc034_03447"
    INDEX 01 00:03:49
  TRACK 07 AUDIO
    TITLE "0:"
    INDEX 01 00:06:67
  TRACK 08 AUDIO
    TITLE "9:cjc034_03448"
    INDEX 01 00:07:00
  TRACK 09 AUDIO
    TITLE "0:"
    INDEX 01 00:11:17
  TRACK 10 AUDIO
    TITLE "10:cjc034_03449"
    INDEX 01 00:11:74
  TRACK 11 AUDIO
    TITLE "0:"
    INDEX 01 00:13:33
  TRACK 12 AUDIO
    TITLE "9:cjc034_03450"
    INDEX 01 00:13:35
  TRACK 13 AUDIO
    TITLE "0:"
    INDEX 01 00:14:47
  TRACK 14 AUDIO
    TITLE "10:cjc034_03451"
    INDEX 01 00:15:30
  TRACK 15 AUDIO
    TITLE "0:"
    INDEX 01 00:17:74
  TRACK 16 AUDIO
    TITLE "9:cjc034_03452"
    INDEX 01 00:18:03
  TRACK 17 AUDIO
    TITLE "0:"
    INDEX 01 00:19:30
  TRACK 18 AUDIO
    TITLE "11:cjc034_03453"
    INDEX 01 00:21:00
  TRACK 19 AUDIO
    TITLE "0:"
    INDEX 01 00:24:27
  TRACK 20 AUDIO
    TITLE "10:cjc034_03454"
    INDEX 01 00:25:29
  TRACK 21 AUDIO
    TITLE "0:"
    INDEX 01 00:26:67
  TRACK 22 AUDIO
    TITLE "9:cjc034_03455"
    INDEX 01 00:27:02
  TRACK 23 AUDIO
    TITLE "0:"
    INDEX 01 00:28:23
  TRACK 24 AUDIO
    TITLE "10:cjc034_03456"
    INDEX 01 00:29:05
  TRACK 25 AUDIO
    TITLE "0:"
    INDEX 01 00:32:29
  TRACK 26 AUDIO
    TITLE "9:cjc034_03457"
    INDEX 01 00:32:35
  TRACK 27 AUDIO
    TITLE "0:"
    INDEX 01 00:33:46
  TRACK 28 AUDIO
    TITLE "10:cjc034_03458"
    INDEX 01 00:34:30
  TRACK 29 AUDIO
    TITLE "0:"
    INDEX 01 00:35:66
  TRACK 30 AUDIO
    TITLE "9:cjc034_03459"
    INDEX 01 00:35:68
  TRACK 31 AUDIO
    TITLE "0:"
    INDEX 01 00:37:24
  TRACK 32 AUDIO
    TITLE "10:cjc034_03460"
    INDEX 01 00:38:08
  TRACK 33 AUDIO
    TITLE "0:"
    INDEX 01 00:39:39
  TRACK 34 AUDIO
    TITLE "9:cjc034_03461"
    INDEX 01 00:39:41
  TRACK 35 AUDIO
    TITLE "0:"
    INDEX 01 00:40:58
  TRACK 36 AUDIO
    TITLE "10:cjc034_03462"
    INDEX 01 00:41:40
  TRACK 37 AUDIO
    TITLE "0:"
    INDEX 01 00:44:22
  TRACK 38 AUDIO
    TITLE "9:cjc034_03463"
    INDEX 01 00:44:24
  TRACK 39 AUDIO
    TITLE "0:"
    INDEX 01 00:45:61
  TRACK 40 AUDIO
    TITLE "10:cjc034_03464"
    INDEX 01 00:46:43
  TRACK 41 AUDIO
    TITLE "0:"
    INDEX 01 00:47:62
  TRACK 42 AUDIO
    TITLE "9:cjc034_03465"
    INDEX 01 00:47:68
  TRACK 43 AUDIO
    TITLE "0:"
    INDEX 01 00:49:25
  TRACK 44 AUDIO
    TITLE "10:cjc034_03466"
    INDEX 01 00:50:09
  TRACK 45 AUDIO
    TITLE "0:"
    INDEX 01 00:51:44
  TRACK 46 AUDIO
    TITLE "9:cjc034_03467"
    INDEX 01 00:51:56
  TRACK 47 AUDIO
    TITLE "0:"
    INDEX 01 00:53:13
  TRACK 48 AUDIO
    TITLE "10:cjc034_03468"
    INDEX 01 00:53:66
  TRACK 49 AUDIO
    TITLE "0:"
    INDEX 01 00:56:29
  TRACK 50 AUDIO
    TITLE "9:cjc034_03469"
    INDEX 01 00:56:35
  TRACK 51 AUDIO
    TITLE "0:"
    INDEX 01 00:58:32
  TRACK 52 AUDIO
    TITLE "10:cjc034_03470"
    INDEX 01 00:59:16
  TRACK 53 AUDIO
    TITLE "0:"
    INDEX 01 01:00:31
  TRACK 54 AUDIO
    TITLE "9:cjc034_03471"
    INDEX 01 01:00:35
  TRACK 55 AUDIO
    TITLE "0:"
    INDEX 01 01:01:58
  TRACK 56 AUDIO
    TITLE "10:cjc034_03472"
    INDEX 01 01:02:42
  TRACK 57 AUDIO
    TITLE "0:"
    INDEX 01 01:04:00
  TRACK 58 AUDIO
    TITLE "9:cjc034_03473"
    INDEX 01 01:04:03
  TRACK 59 AUDIO
    TITLE "0:"
    INDEX 01 01:06:73
  TRACK 60 AUDIO
    TITLE "10:cjc034_03474"
    INDEX 01 01:07:57
  TRACK 61 AUDIO
    TITLE "0:"
    INDEX 01 01:10:20
  TRACK 62 AUDIO
    TITLE "9:cjc034_03475"
    INDEX 01 01:10:24
  TRACK 63 AUDIO
    TITLE "0:"
    INDEX 01 01:13:20
  TRACK 64 AUDIO
    TITLE "10:cjc034_03476"
    INDEX 01 01:14:04
  TRACK 65 AUDIO
    TITLE "0:"
    INDEX 01 01:15:35
  TRACK 66 AUDIO
    TITLE "9:cjc034_03477"
    INDEX 01 01:15:39
  TRACK 67 AUDIO
    TITLE "0:"
    INDEX 01 01:16:63
  TRACK 68 AUDIO
    TITLE "10:cjc034_03478"
    INDEX 01 01:17:45
  TRACK 69 AUDIO
    TITLE "0:"
    INDEX 01 01:19:27
  TRACK 70 AUDIO
    TITLE "9:cjc034_03479"
    INDEX 01 01:19:28
  TRACK 71 AUDIO
    TITLE "0:"
    INDEX 01 01:22:09
  TRACK 72 AUDIO
    TITLE "10:cjc034_03480"
    INDEX 01 01:22:64
  TRACK 73 AUDIO
    TITLE "0:"
    INDEX 01 01:24:49
  TRACK 74 AUDIO
    TITLE "9:cjc034_03481"
    INDEX 01 01:24:51
  TRACK 75 AUDIO
    TITLE "0:"
    INDEX 01 01:28:10
  TRACK 76 AUDIO
    TITLE "10:cjc034_03482"
    INDEX 01 01:28:67
  TRACK 77 AUDIO
    TITLE "0:"
    INDEX 01 01:29:70
  TRACK 78 AUDIO
    TITLE "9:cjc034_03483"
    INDEX 01 01:30:01
  TRACK 79 AUDIO
    TITLE "0:"
    INDEX 01 01:31:22
  TRACK 80 AUDIO
    TITLE "10:cjc034_03484"
    INDEX 01 01:32:06
  TRACK 81 AUDIO
    TITLE "0:"
    INDEX 01 01:34:30
  TRACK 82 AUDIO
    TITLE "9:cjc034_03485"
    INDEX 01 01:34:36
  TRACK 83 AUDIO
    TITLE "0:"
    INDEX 01 01:35:49
  TRACK 84 AUDIO
    TITLE "10:cjc034_03486"
    INDEX 01 01:36:31
  TRACK 85 AUDIO
    TITLE "0:"
    INDEX 01 01:37:28
  TRACK 86 AUDIO
    TITLE "9:cjc034_03487"
    INDEX 01 01:37:34
  TRACK 87 AUDIO
    TITLE "0:"
    INDEX 01 01:38:63
